<svg width="196" height="64" viewBox="0 0 196 64" fill="none" xmlns="http://www.w3.org/2000/svg">
<path d="M32.1581 0.0419808C32.3717 0.0542568 32.5761 0.107219 32.778 0.176548C33.8317 0.538244 33.8784 1.7299 33.2386 2.34328C33.0783 2.49705 32.8955 2.62009 32.7156 2.74801C32.2805 3.05734 31.866 3.39023 31.5163 3.80013C30.9247 4.48525 30.5359 5.32418 30.3941 6.22132C30.2086 7.36125 30.0245 8.5014 29.8417 9.64176C29.618 11.0236 29.3941 12.4054 29.1699 13.7872C28.9359 15.245 28.7071 16.7037 28.4738 18.1617C28.2684 19.4458 28.0614 20.7296 27.8528 22.0132C27.6968 22.9799 27.5588 23.9499 27.3805 24.9124C27.0685 26.597 26.4619 28.1625 25.426 29.5363C24.5571 30.6886 23.4663 31.573 22.1887 32.2319C20.7968 32.9497 19.3142 33.3597 17.7795 33.6088C16.3875 33.8347 14.9869 33.8976 13.5813 33.8277C11.7878 33.7387 10.044 33.4116 8.40434 32.6385C7.46763 32.1969 6.61855 31.6268 5.93764 30.8295C5.17673 29.9386 4.73737 28.9043 4.63803 27.7325C4.46842 25.7317 5.06909 23.9894 6.40235 22.5035C7.04152 21.7912 7.80643 21.2441 8.65001 20.8063C9.9364 20.1388 11.3021 19.81 12.7502 19.8532C13.2828 19.8671 13.8067 19.9916 14.2894 20.2189C15.2461 20.6693 15.6282 21.4732 15.5156 22.5032C15.4405 23.1908 15.0928 23.7217 14.5414 24.1198C14.1307 24.4164 13.6617 24.5967 13.1971 24.7837C12.717 24.977 12.2564 25.2003 11.8409 25.5201C11.2877 25.9459 10.9822 26.5065 10.9122 27.1918C10.8037 28.2541 11.1574 29.1218 12.0529 29.7239C12.4457 29.9888 12.8919 30.1622 13.3593 30.2318C14.2633 30.3671 15.1439 30.2937 15.9845 29.9003C16.453 29.6789 16.8761 29.3706 17.2314 28.9913C17.6817 28.5172 18.0344 27.9757 18.3157 27.3848C18.9179 26.1196 19.2972 24.7882 19.5043 23.4019C19.6682 22.3053 19.8533 21.2119 20.0281 20.1169C20.1571 19.3087 20.2853 18.5005 20.4129 17.6921C20.5539 16.8084 20.6957 15.9248 20.8381 15.0413C21.0274 13.8632 21.2167 12.6852 21.4062 11.5072C21.58 10.4272 21.7539 9.34727 21.9279 8.26732C22.0859 7.27804 22.2458 6.28901 22.3948 5.29833C22.4417 4.9791 22.4307 4.65394 22.3623 4.33869C22.3031 4.06003 22.1584 3.83062 21.9582 3.63397C21.7782 3.45726 21.5792 3.30387 21.3799 3.15069C21.2169 3.02543 21.0525 2.90189 20.8934 2.77166C20.0697 2.09703 20.2307 0.85324 21.1505 0.376317C21.5365 0.176144 21.9511 0.100797 22.3739 0.0515253C22.5693 0.0287491 22.7659 0.0168383 22.962 1.40381e-06H31.8006C31.9165 0.0422493 32.038 0.0360537 32.1581 0.0419808Z" fill="#FAFCFF"/>
<path d="M0 36.4517C0.774215 36.4545 1.54843 36.4597 2.32264 36.4597C11.1897 36.4598 20.0567 36.4595 28.9238 36.4587C30.8673 36.4586 32.8108 36.4582 34.7543 36.4575C34.7998 36.4575 34.8455 36.4593 34.8909 36.4569C34.9687 36.4529 35.0008 36.4914 34.9994 36.5666C34.9984 36.6202 35 36.6738 35 36.7274C34.9999 38.673 34.9997 40.6186 34.9994 42.5641C34.9993 42.8677 35.0236 42.8361 34.7322 42.8361C24.4681 42.836 14.204 42.8356 3.9398 42.8351C2.70993 42.835 1.48005 42.8346 0.250177 42.834C0.166786 42.834 0.0833923 42.8387 0 42.8411V36.4517ZM28.6171 40.4825V40.4845C28.8902 40.4845 29.1633 40.4824 29.4364 40.4853C29.594 40.487 29.5941 40.4906 29.6005 40.6549C29.602 40.6931 29.602 40.7314 29.6019 40.7697C29.6005 41.2595 29.5979 41.7493 29.5979 42.2391C29.5979 42.4045 29.6008 42.4078 29.7615 42.4084C30.0498 42.4095 30.3381 42.4056 30.6263 42.4051C30.7856 42.4048 30.9449 42.4063 31.1042 42.4087C31.1864 42.41 31.2338 42.3776 31.2317 42.2888C31.2304 42.2352 31.2302 42.1816 31.23 42.1281C31.2289 41.6459 31.2263 41.1637 31.2275 40.6815C31.2281 40.4858 31.232 40.4841 31.4322 40.4837C31.9329 40.4827 32.4336 40.484 32.9342 40.4831C33.1617 40.4827 33.1632 40.4813 33.1639 40.2633C33.1651 39.8653 33.1651 39.4673 33.164 39.0693C33.1632 38.823 33.1616 38.8208 32.9069 38.8199C32.4138 38.8181 31.9207 38.8197 31.4276 38.8185C31.2308 38.818 31.228 38.8162 31.2271 38.6154C31.225 38.1103 31.226 37.6051 31.2251 37.1C31.2247 36.8832 31.2239 36.8809 31.0163 36.8807C30.6142 36.8803 30.2122 36.8824 29.8101 36.8845C29.5915 36.8856 29.5918 36.8866 29.593 37.118C29.5956 37.6155 29.5993 38.113 29.5996 38.6104C29.5997 38.8207 29.5964 38.8219 29.384 38.8221C28.8682 38.8226 28.3523 38.8205 27.8365 38.8225C27.6612 38.8233 27.6576 38.8275 27.6567 39.0005C27.6543 39.4368 27.654 39.873 27.656 40.3093C27.6568 40.4743 27.662 40.4794 27.8205 40.4815C28.086 40.485 28.3516 40.4825 28.6171 40.4825Z" fill="#D5302D"/>
<path d="M32.1581 0.0419808C32.038 0.0360537 31.9165 0.0422493 31.8006 1.40381e-06L32.2106 0C32.1988 0.00129345 32.1877 0.00592115 32.1784 0.0133488C32.1691 0.0207764 32.162 0.0307019 32.1581 0.0419808Z" fill="#D5302D"/>
<path d="M28.1128 45.5918C28.4519 45.6277 28.7867 45.697 29.1125 45.7988C29.7284 45.9865 30.2977 46.2674 30.8064 46.6749C31.9087 47.5582 32.5805 48.7145 32.9265 50.0715C33.2376 51.2917 33.3015 52.5316 33.1831 53.7869C33.0606 55.1067 32.7632 56.4039 32.2989 57.644C31.785 59.0155 31.0719 60.2748 30.0988 61.372C29.3308 62.238 28.4339 62.9338 27.3776 63.4111C26.7704 63.6855 26.1309 63.8396 25.4755 63.932C24.5706 64.0585 23.65 64.0082 22.7639 63.7837C21.5145 63.4726 20.5214 62.7643 19.7416 61.7422C19.1166 60.9228 18.7292 59.9958 18.5362 58.9837C18.3339 57.9224 18.3396 56.8545 18.4307 55.7823C18.4766 55.2024 18.5619 54.6264 18.6859 54.0582C19.1437 52.0209 19.8999 50.1146 21.2406 48.4882C22.3366 47.1587 23.6827 46.2046 25.3585 45.7644C26.1665 45.5521 26.9883 45.4919 27.8195 45.5598C27.9137 45.6011 28.0144 45.5862 28.1128 45.5918ZM22.4704 58.6796C22.4633 59.0123 22.4776 59.3451 22.5135 59.6759C22.5616 60.1487 22.6415 60.617 22.8295 61.057C23.0183 61.4987 23.3014 61.8567 23.7501 62.0592C24.3065 62.3103 24.8558 62.2745 25.3993 62.0218C25.8629 61.8063 26.1891 61.433 26.4832 61.0299C26.8262 60.5596 27.0871 60.0406 27.3267 59.5111C27.8453 58.3651 28.178 57.1569 28.4715 55.9384C28.7128 54.9265 28.8911 53.9003 29.0054 52.8659C29.1223 51.8298 29.1815 50.7902 29.0618 49.7492C29.003 49.2383 28.9047 48.7351 28.6608 48.2758C28.4394 47.8589 28.1245 47.5323 27.6647 47.4005C27.0749 47.2313 26.5263 47.3502 26.0297 47.7132C25.5852 48.0381 25.2521 48.4622 24.9717 48.9312C24.4313 49.8347 24.0293 50.8007 23.7097 51.8034C23.2961 53.1013 22.9678 54.4197 22.7544 55.7672C22.6035 56.7208 22.4781 57.676 22.4704 58.6796Z" fill="#FAFCFF"/>
<path d="M12.2375 48.8191C12.1455 48.7612 12.0839 48.7793 12.0263 48.7793C10.1663 48.7784 8.30627 48.7783 6.44625 48.7789C6.15783 48.7808 5.87016 48.8088 5.58675 48.8628C5.04011 48.9629 4.56774 49.2049 4.18079 49.6088C4.04372 49.7518 3.91641 49.9044 3.78216 50.0503C3.60325 50.2447 3.39612 50.3962 3.13411 50.4541C2.54676 50.5841 2.13734 50.187 2.24814 49.5934C2.3155 49.2326 2.40335 48.8764 2.49817 48.5219C2.65417 47.9387 2.80712 47.3547 2.9653 46.7721C3.00074 46.6471 3.04366 46.5245 3.09381 46.4048C3.2859 45.9316 3.64824 45.6926 4.14295 45.6467C4.29383 45.6327 4.44629 45.6324 4.59803 45.6323C8.20422 45.6312 11.8104 45.6307 15.4166 45.6309C15.5228 45.6309 15.6296 45.6314 15.7351 45.6416C16.2037 45.6866 16.431 46.0944 16.243 46.5271C16.1611 46.7156 16.0512 46.8841 15.9432 47.0556C15.272 48.1216 14.6182 49.198 13.9905 50.2909C12.9417 52.117 11.9699 53.9841 11.0256 55.8668C10.6582 56.5994 10.3173 57.3444 9.96151 58.0824C9.6888 58.6481 9.45369 59.232 9.19133 59.8029C8.77143 60.7167 8.42518 61.6614 8.02824 62.5847C7.98603 62.6829 7.94416 62.7815 7.90797 62.882C7.70849 63.4362 7.28377 63.6832 6.73473 63.7624C6.56175 63.7865 6.38728 63.798 6.21267 63.797C5.12702 63.796 4.04136 63.7964 2.95571 63.798C2.81904 63.7993 2.68262 63.7861 2.54871 63.7585C2.21337 63.6868 2.0617 63.4766 2.08706 63.1338C2.09984 62.961 2.16145 62.8076 2.24897 62.6616C2.66931 61.9606 3.12805 61.2847 3.57712 60.6026C4.06796 59.8571 4.5647 59.1155 5.06736 58.3779C5.6729 57.4846 6.30575 56.6107 6.93832 55.7369C8.44708 53.6526 10.0278 51.6241 11.6147 49.6003C11.8164 49.343 12.0222 49.089 12.2375 48.8191Z" fill="#FAFCFF"/>
<path d="M31.5798 33.9275C30.3602 33.94 29.302 32.9908 29.2676 31.7382C29.2374 30.6379 29.9906 29.8 30.8672 29.5352C32.0682 29.1723 33.3501 29.8101 33.7323 30.9835C34.1523 32.2733 33.3376 33.6449 32.0117 33.8835C31.8542 33.9119 31.6972 33.9331 31.5798 33.9275ZM33.4542 31.6964C33.4716 30.7877 32.7625 29.8092 31.5427 29.8072C30.4778 29.8054 29.6485 30.6853 29.6547 31.6758C29.6613 32.7248 30.506 33.5653 31.5793 33.5526C32.6668 33.5397 33.4774 32.6341 33.4542 31.6964Z" fill="#FAFCFF"/>
<path d="M27.8195 45.5598C27.9137 45.6011 28.0144 45.5862 28.1128 45.5918C28.018 45.5539 27.9193 45.5537 27.8195 45.5598Z" fill="#D5302D"/>
<path d="M32.066 31.7826C32.3787 32.097 32.5813 32.4888 32.8383 32.8843C32.679 32.919 32.5533 32.9004 32.4295 32.9019C32.3432 32.903 32.3243 32.8262 32.2887 32.7704C32.1451 32.5455 31.9993 32.322 31.8601 32.0943C31.7323 31.8854 31.5534 31.7924 31.3095 31.8017C30.9162 31.8166 30.972 31.7405 30.9634 32.1349C30.9592 32.3261 30.9626 32.5175 30.9613 32.7088C30.96 32.9056 30.9593 32.9056 30.7568 32.9017C30.7265 32.9012 30.6962 32.9017 30.6658 32.9007C30.6108 32.8988 30.5842 32.8684 30.583 32.8139C30.5823 32.7757 30.5819 32.7374 30.5819 32.6992C30.5805 31.9876 30.5794 31.276 30.5784 30.5644C30.5783 30.3787 30.5806 30.3775 30.7651 30.3764C31.1139 30.3743 31.4628 30.3722 31.8116 30.3734C31.9102 30.3717 32.0088 30.3786 32.1062 30.3939C32.4331 30.4528 32.6488 30.683 32.6749 30.9905C32.7047 31.3413 32.5416 31.5967 32.2103 31.7148C32.1611 31.7324 32.104 31.7305 32.066 31.7826ZM31.4492 31.4799V31.4815C31.578 31.4815 31.7071 31.4877 31.8354 31.4799C31.9739 31.4714 32.1066 31.4309 32.2014 31.3215C32.2441 31.2722 32.2732 31.2124 32.2859 31.1482C32.2986 31.084 32.2943 31.0176 32.2735 30.9555C32.2528 30.8935 32.2162 30.8381 32.1676 30.7947C32.1189 30.7514 32.0598 30.7217 31.9962 30.7085C31.6835 30.6397 31.3623 30.6824 31.0449 30.6749C30.9713 30.6732 30.9638 30.73 30.9641 30.7865C30.965 30.9776 30.9682 31.1686 30.9675 31.3596C30.9672 31.443 30.9933 31.4863 31.0858 31.4815C31.2066 31.4752 31.3281 31.4799 31.4492 31.4799Z" fill="#FAFCFF"/>
<path d="M61.1291 37.459C61.972 37.459 62.7566 37.6099 63.4825 37.9101C64.208 38.1987 64.8401 38.6083 65.3785 39.1393C65.9287 39.6589 66.3511 40.2595 66.6437 40.9408L64.4133 41.7556C64.2143 41.3283 63.9503 40.9584 63.6225 40.6467C63.2948 40.3234 62.9206 40.0746 62.4992 39.9014C62.0778 39.7167 61.6208 39.6242 61.1291 39.6242C60.415 39.6242 59.777 39.8038 59.215 40.1617C58.6648 40.5082 58.2316 40.9875 57.9155 41.5996C57.6111 42.2115 57.4591 42.9217 57.4591 43.73C57.4591 44.5381 57.6167 45.2539 57.9326 45.8773C58.2487 46.4893 58.6883 46.975 59.2503 47.333C59.8121 47.6792 60.4559 47.8526 61.1815 47.8527C61.685 47.8527 62.1418 47.7602 62.5516 47.5754C62.973 47.3792 63.3417 47.1134 63.6578 46.7785C63.9856 46.4437 64.2495 46.0568 64.4486 45.6179L66.678 46.4148C66.3854 47.1191 65.9639 47.7423 65.4137 48.285C64.8752 48.8276 64.2435 49.2496 63.5177 49.5499C62.7918 49.8501 62.0009 50 61.1463 50C59.9522 50 58.8927 49.7342 57.9679 49.2031C57.0431 48.6604 56.3176 47.9214 55.7908 46.9862C55.264 46.0394 55 44.954 55 43.73C55 42.5059 55.264 41.426 55.7908 40.4907C56.3176 39.5438 57.0376 38.8049 57.9507 38.2738C58.8756 37.7311 59.935 37.459 61.1291 37.459Z" fill="#FAFCFF"/>
<path fill-rule="evenodd" clip-rule="evenodd" d="M76.1561 40.9239C77.0341 40.9239 77.766 41.0792 78.3513 41.3909C78.9367 41.7027 79.3753 42.1651 79.668 42.7771C79.9607 43.3775 80.1072 44.1165 80.1073 44.9939V49.7923H77.8063L77.7949 48.8422C77.7591 48.9007 77.7225 48.9584 77.6834 49.0133C77.2268 49.6712 76.4776 50 75.4359 50C74.3824 50 73.5631 49.7691 72.9777 49.3074C72.404 48.8455 72.1164 48.1929 72.1164 47.3499C72.1164 46.4262 72.4268 45.7331 73.0473 45.2712C73.6795 44.7977 74.5641 44.5617 75.6998 44.5617H77.6872C77.6592 44.393 77.6254 44.2366 77.5786 44.0937C77.4733 43.7242 77.2976 43.4467 77.0517 43.262C76.8176 43.0657 76.5008 42.9678 76.1028 42.9678C75.7518 42.9679 75.4356 43.0424 75.1548 43.1924C74.8738 43.3426 74.6335 43.5859 74.4345 43.9207L72.3622 43.2272C72.5261 42.8577 72.761 42.4995 73.0654 42.1531C73.3814 41.7953 73.7912 41.5006 74.2944 41.2697C74.8095 41.0388 75.4304 40.9239 76.1561 40.9239ZM76.5068 46.2589C75.7462 46.2589 75.2198 46.3514 74.9271 46.5361C74.6345 46.7092 74.488 46.9572 74.4879 47.2804C74.4879 47.5342 74.6046 47.7364 74.8385 47.8865C75.0726 48.0251 75.4012 48.0951 75.8227 48.0951C76.1972 48.0951 76.525 48.008 76.8059 47.8348C77.0985 47.6501 77.3271 47.4193 77.491 47.1422C77.6548 46.8536 77.7368 46.559 77.7368 46.2589H76.5068Z" fill="#FAFCFF"/>
<path d="M85.3055 40.9239C85.8558 40.9239 86.3655 41.0047 86.8338 41.1663C87.3137 41.328 87.7234 41.5534 88.0628 41.842C88.4023 42.1307 88.6363 42.4656 88.765 42.8466L86.8509 43.7121C86.7689 43.4813 86.5695 43.3025 86.2535 43.1755C85.9376 43.0371 85.6215 42.9678 85.3055 42.9678C85.0012 42.9679 84.7608 43.0316 84.5853 43.1586C84.4217 43.2856 84.3394 43.4591 84.3394 43.6783C84.3396 43.8281 84.4217 43.9551 84.5853 44.0589C84.7491 44.1512 84.9777 44.2321 85.2703 44.3013L86.4117 44.5786C86.9853 44.7171 87.4477 44.9425 87.7989 45.2543C88.1501 45.5544 88.4023 45.8948 88.5545 46.2758C88.7184 46.6453 88.8003 47.0098 88.8003 47.3678C88.8002 47.8872 88.6418 48.3489 88.3258 48.7529C88.0214 49.1455 87.6 49.4517 87.0615 49.6711C86.5347 49.8904 85.9257 50 85.235 50C84.6734 50 84.1469 49.9191 83.6553 49.7575C83.1637 49.5844 82.7304 49.3419 82.3558 49.0302C81.9812 48.7069 81.6881 48.3144 81.4773 47.8527L83.4619 46.9514C83.6375 47.2169 83.8771 47.4478 84.1813 47.644C84.4856 47.8403 84.8371 47.9391 85.235 47.9391C85.6096 47.9391 85.9028 47.887 86.1135 47.7831C86.3241 47.6793 86.4297 47.5291 86.4298 47.333C86.4298 47.1251 86.3415 46.9743 86.1659 46.8819C86.002 46.7781 85.7797 46.6918 85.499 46.6225L84.691 46.4148C83.8364 46.1954 83.1629 45.8489 82.6712 45.3755C82.1912 44.8905 81.9518 44.3357 81.9518 43.7121C81.9519 42.8232 82.2441 42.1362 82.8293 41.6512C83.4147 41.1663 84.2402 40.9239 85.3055 40.9239Z" fill="#FAFCFF"/>
<path d="M93.4688 40.9239C94.0191 40.9239 94.5288 41.0047 94.9971 41.1663C95.477 41.328 95.8867 41.5534 96.2261 41.842C96.5656 42.1307 96.7996 42.4656 96.9283 42.8466L95.0142 43.7121C94.9322 43.4813 94.7328 43.3025 94.4168 43.1755C94.1008 43.0371 93.7848 42.9678 93.4688 42.9678C93.1645 42.9679 92.9241 43.0316 92.7485 43.1586C92.5849 43.2856 92.5027 43.4591 92.5027 43.6783C92.5029 43.8281 92.585 43.9551 92.7485 44.0589C92.9124 44.1512 93.141 44.2321 93.4336 44.3013L94.575 44.5786C95.1486 44.7171 95.611 44.9425 95.9622 45.2543C96.3134 45.5544 96.5656 45.8948 96.7178 46.2758C96.8817 46.6453 96.9636 47.0098 96.9636 47.3678C96.9635 47.8872 96.8051 48.3489 96.4891 48.7529C96.1847 49.1455 95.7633 49.4517 95.2248 49.6711C94.698 49.8904 94.089 50 93.3983 50C92.8366 50 92.3101 49.9191 91.8186 49.7575C91.327 49.5844 90.8937 49.3419 90.5191 49.0302C90.1445 48.7069 89.8513 48.3144 89.6406 47.8527L91.6252 46.9514C91.8007 47.2169 92.0404 47.4478 92.3446 47.644C92.6489 47.8403 93.0004 47.9391 93.3983 47.9391C93.7729 47.9391 94.066 47.887 94.2768 47.7831C94.4874 47.6793 94.593 47.5291 94.5931 47.333C94.5931 47.1251 94.5048 46.9743 94.3292 46.8819C94.1653 46.7781 93.9429 46.6918 93.6622 46.6225L92.8543 46.4148C91.9996 46.1954 91.3261 45.8489 90.8344 45.3755C90.3545 44.8905 90.1151 44.3357 90.1151 43.7121C90.1152 42.8232 90.4074 42.1362 90.9926 41.6512C91.5779 41.1663 92.4035 40.9239 93.4688 40.9239Z" fill="#FAFCFF"/>
<path d="M118.37 40.9239C118.921 40.9239 119.43 41.0047 119.899 41.1663C120.378 41.328 120.788 41.5534 121.128 41.842C121.467 42.1307 121.701 42.4656 121.83 42.8466L119.916 43.7121C119.834 43.4813 119.634 43.3025 119.318 43.1755C119.002 43.0371 118.686 42.9678 118.37 42.9678C118.066 42.9679 117.826 43.0316 117.65 43.1586C117.486 43.2856 117.404 43.4591 117.404 43.6783C117.404 43.8281 117.486 43.9551 117.65 44.0589C117.814 44.1512 118.042 44.2321 118.335 44.3013L119.476 44.5786C120.05 44.7171 120.512 44.9425 120.864 45.2543C121.215 45.5544 121.467 45.8948 121.619 46.2758C121.783 46.6453 121.865 47.0098 121.865 47.3678C121.865 47.8872 121.707 48.3489 121.391 48.7529C121.086 49.1455 120.665 49.4517 120.126 49.6711C119.599 49.8904 118.99 50 118.3 50C117.738 50 117.212 49.9191 116.72 49.7575C116.228 49.5844 115.795 49.3419 115.421 49.0302C115.046 48.7069 114.753 48.3144 114.542 47.8527L116.527 46.9514C116.702 47.2169 116.942 47.4478 117.246 47.644C117.55 47.8403 117.902 47.9391 118.3 47.9391C118.674 47.9391 118.968 47.887 119.178 47.7831C119.389 47.6793 119.494 47.5291 119.495 47.333C119.495 47.1251 119.406 46.9743 119.231 46.8819C119.067 46.7781 118.844 46.6918 118.564 46.6225L117.756 46.4148C116.901 46.1954 116.228 45.8489 115.736 45.3755C115.256 44.8905 115.017 44.3357 115.017 43.7121C115.017 42.8232 115.309 42.1362 115.894 41.6512C116.479 41.1663 117.305 40.9239 118.37 40.9239Z" fill="#FAFCFF"/>
<path d="M126.534 40.9239C127.084 40.9239 127.594 41.0047 128.062 41.1663C128.542 41.328 128.951 41.5534 129.291 41.842C129.63 42.1307 129.864 42.4656 129.993 42.8466L128.079 43.7121C127.997 43.4813 127.798 43.3025 127.482 43.1755C127.166 43.0371 126.85 42.9678 126.534 42.9678C126.229 42.9679 125.989 43.0316 125.813 43.1586C125.65 43.2856 125.567 43.4591 125.567 43.6783C125.568 43.8281 125.65 43.9551 125.813 44.0589C125.977 44.1512 126.206 44.2321 126.498 44.3013L127.64 44.5786C128.213 44.7171 128.676 44.9425 129.027 45.2543C129.378 45.5544 129.63 45.8948 129.783 46.2758C129.946 46.6453 130.028 47.0098 130.028 47.3678C130.028 47.8872 129.87 48.3489 129.554 48.7529C129.249 49.1455 128.828 49.4517 128.29 49.6711C127.763 49.8904 127.154 50 126.463 50C125.901 50 125.375 49.9191 124.883 49.7575C124.392 49.5844 123.958 49.3419 123.584 49.0302C123.209 48.7069 122.916 48.3144 122.705 47.8527L124.69 46.9514C124.865 47.2169 125.105 47.4478 125.409 47.644C125.714 47.8403 126.065 47.9391 126.463 47.9391C126.838 47.9391 127.131 47.887 127.342 47.7831C127.552 47.6793 127.658 47.5291 127.658 47.333C127.658 47.1251 127.57 46.9743 127.394 46.8819C127.23 46.7781 127.008 46.6918 126.727 46.6225L125.919 46.4148C125.064 46.1954 124.391 45.8489 123.899 45.3755C123.419 44.8905 123.18 44.3357 123.18 43.7121C123.18 42.8232 123.472 42.1362 124.057 41.6512C124.643 41.1663 125.468 40.9239 126.534 40.9239Z" fill="#FAFCFF"/>
<path fill-rule="evenodd" clip-rule="evenodd" d="M135.628 40.9239C136.541 40.9239 137.343 41.1205 138.033 41.5131C138.724 41.8942 139.263 42.4248 139.649 43.106C140.047 43.7873 140.246 44.5728 140.246 45.4619C140.246 46.3511 140.047 47.1366 139.649 47.8179C139.263 48.4992 138.724 49.036 138.033 49.4286C137.354 49.8097 136.564 50 135.662 50C134.761 49.9999 133.959 49.8096 133.256 49.4286C132.566 49.036 132.021 48.4991 131.623 47.8179C131.225 47.1366 131.026 46.3511 131.026 45.4619C131.026 44.5728 131.22 43.7873 131.606 43.106C132.004 42.4249 132.549 41.8941 133.239 41.5131C133.942 41.1205 134.738 40.9239 135.628 40.9239ZM135.628 43.1586C135.23 43.1586 134.872 43.2564 134.556 43.4528C134.24 43.649 133.994 43.9203 133.818 44.2666C133.643 44.613 133.555 45.0116 133.555 45.4619C133.555 45.9123 133.643 46.3109 133.818 46.6573C133.994 47.0036 134.24 47.2749 134.556 47.4711C134.884 47.6674 135.252 47.7652 135.662 47.7653C136.072 47.7653 136.429 47.6674 136.734 47.4711C137.05 47.2749 137.296 47.0036 137.471 46.6573C137.647 46.3109 137.734 45.9123 137.734 45.4619C137.734 45.0116 137.641 44.613 137.454 44.2666C137.279 43.9201 137.032 43.6491 136.716 43.4528C136.4 43.2566 136.037 43.1587 135.628 43.1586Z" fill="#FAFCFF"/>
<path d="M146.104 40.9239C146.982 40.9239 147.784 41.1375 148.51 41.5648C149.236 41.9921 149.763 42.6097 150.091 43.418L147.913 44.1801C147.749 43.8453 147.491 43.5795 147.14 43.3832C146.801 43.1755 146.42 43.0712 145.999 43.0712C145.566 43.0713 145.185 43.1754 144.857 43.3832C144.529 43.5795 144.272 43.8569 144.084 44.2149C143.897 44.5728 143.803 44.9886 143.803 45.4619C143.803 45.9353 143.897 46.3511 144.084 46.709C144.272 47.0554 144.536 47.3328 144.875 47.5407C145.215 47.7484 145.601 47.8526 146.034 47.8527C146.455 47.8527 146.836 47.7422 147.175 47.5228C147.526 47.3035 147.784 47.0152 147.948 46.6573L150.143 47.4194C149.804 48.2391 149.271 48.874 148.545 49.3243C147.831 49.7746 147.029 50 146.14 50C145.226 50 144.413 49.8096 143.699 49.4286C142.985 49.0361 142.428 48.4991 142.03 47.8179C141.632 47.125 141.433 46.3396 141.433 45.4619C141.433 44.5728 141.632 43.7873 142.03 43.106C142.428 42.4249 142.978 41.8941 143.68 41.5131C144.383 41.1205 145.191 40.9239 146.104 40.9239Z" fill="#FAFCFF"/>
<path fill-rule="evenodd" clip-rule="evenodd" d="M159.796 40.9239C160.674 40.9239 161.405 41.0792 161.991 41.3909C162.576 41.7027 163.015 42.1651 163.307 42.7771C163.6 43.3775 163.747 44.1165 163.747 44.9939V49.7923H161.446L161.434 48.8422C161.399 48.9007 161.362 48.9584 161.323 49.0133C160.866 49.6712 160.117 50 159.075 50C158.022 50 157.202 49.7691 156.617 49.3074C156.043 48.8455 155.756 48.1929 155.756 47.3499C155.756 46.4262 156.066 45.7331 156.687 45.2712C157.319 44.7977 158.204 44.5617 159.339 44.5617H161.327C161.299 44.393 161.265 44.2366 161.218 44.0937C161.113 43.7242 160.937 43.4467 160.691 43.262C160.457 43.0657 160.14 42.9678 159.742 42.9678C159.391 42.9679 159.075 43.0424 158.794 43.1924C158.513 43.3426 158.273 43.5859 158.074 43.9207L156.002 43.2272C156.166 42.8577 156.4 42.4995 156.705 42.1531C157.021 41.7953 157.431 41.5006 157.934 41.2697C158.449 41.0388 159.07 40.9239 159.796 40.9239ZM160.146 46.2589C159.386 46.2589 158.859 46.3514 158.566 46.5361C158.274 46.7092 158.127 46.9572 158.127 47.2804C158.127 47.5342 158.244 47.7364 158.478 47.8865C158.712 48.0251 159.041 48.0951 159.462 48.0951C159.837 48.0951 160.164 48.008 160.445 47.8348C160.738 47.6501 160.967 47.4193 161.13 47.1422C161.294 46.8536 161.376 46.559 161.376 46.2589H160.146Z" fill="#FAFCFF"/>
<path d="M168.752 41.1316H170.947V43.0712H168.752V46.7607C168.752 47.1302 168.833 47.4139 168.997 47.6102C169.161 47.7949 169.402 47.8865 169.718 47.8865C169.835 47.8865 169.964 47.8641 170.104 47.8179C170.245 47.7602 170.391 47.6792 170.543 47.5754L171.351 49.2895C171.07 49.4974 170.754 49.6653 170.403 49.7923C170.063 49.9309 169.724 50 169.384 50C168.412 50 167.675 49.763 167.172 49.2895C166.68 48.8161 166.433 48.141 166.433 47.2634V43.0712H165.011V41.1316H166.433V38.4298H168.752V41.1316Z" fill="#FAFCFF"/>
<path fill-rule="evenodd" clip-rule="evenodd" d="M181.589 40.9239C182.502 40.9239 183.304 41.1205 183.995 41.5131C184.685 41.8942 185.224 42.4248 185.611 43.106C186.009 43.7873 186.207 44.5728 186.207 45.4619C186.207 46.3511 186.009 47.1366 185.611 47.8179C185.224 48.4992 184.686 49.036 183.995 49.4286C183.316 49.8097 182.525 50 181.623 50C180.722 49.9999 179.92 49.8096 179.218 49.4286C178.527 49.036 177.983 48.4991 177.585 47.8179C177.187 47.1366 176.987 46.3511 176.987 45.4619C176.987 44.5728 177.181 43.7873 177.567 43.106C177.965 42.4249 178.51 41.8941 179.201 41.5131C179.903 41.1205 180.699 40.9239 181.589 40.9239ZM181.589 43.1586C181.191 43.1586 180.833 43.2564 180.517 43.4528C180.201 43.649 179.955 43.9203 179.78 44.2666C179.604 44.613 179.517 45.0116 179.517 45.4619C179.517 45.9123 179.604 46.3109 179.78 46.6573C179.955 47.0036 180.201 47.2748 180.517 47.4711C180.845 47.6674 181.214 47.7652 181.623 47.7653C182.033 47.7653 182.391 47.6674 182.695 47.4711C183.011 47.2749 183.257 47.0036 183.433 46.6573C183.608 46.3109 183.696 45.9123 183.696 45.4619C183.696 45.0116 183.603 44.613 183.416 44.2666C183.24 43.9201 182.993 43.6491 182.677 43.4528C182.361 43.2566 181.999 43.1587 181.589 43.1586Z" fill="#FAFCFF"/>
<path d="M70.43 49.7923H68.1119L68.1291 37.6676H70.4472L70.43 49.7923Z" fill="#FAFCFF"/>
<path fill-rule="evenodd" clip-rule="evenodd" d="M113.877 49.7923H111.33L110.295 47.1244H105.201L104.166 49.7923H101.619L106.466 37.6676H109.03L113.877 49.7923ZM106.015 45.0287H109.482L107.748 40.5621L106.015 45.0287Z" fill="#FAFCFF"/>
<path d="M153.952 49.7923H151.634V41.1316H153.952V49.7923Z" fill="#FAFCFF"/>
<path d="M175.184 49.7923H172.866V41.1316H175.184V49.7923Z" fill="#FAFCFF"/>
<path d="M192.715 40.9239C193.781 40.9239 194.595 41.2471 195.156 41.8937C195.73 42.5288 196.011 43.5102 196 44.8379V49.7923H193.682V45.3576C193.682 44.7689 193.611 44.3126 193.47 43.9893C193.341 43.6663 193.155 43.4353 192.909 43.2968C192.663 43.1466 192.375 43.0712 192.048 43.0712C191.451 43.0598 190.988 43.2393 190.66 43.6087C190.384 43.932 190.228 44.3922 190.194 44.9892L190.187 45.2543V49.7923H187.869V41.1316H190.046L190.149 42.2997C190.38 41.9479 190.656 41.6623 190.977 41.4436C191.468 41.0971 192.048 40.9239 192.715 40.9239Z" fill="#FAFCFF"/>
<path d="M152.794 37.0953C153.156 37.0954 153.466 37.2285 153.724 37.4938C153.993 37.7478 154.128 38.054 154.128 38.4119C154.128 38.7699 153.993 39.0823 153.724 39.3479C153.466 39.6016 153.156 39.7284 152.794 39.7285C152.443 39.7285 152.132 39.6017 151.863 39.3479C151.594 39.0823 151.459 38.7699 151.459 38.4119C151.459 38.054 151.594 37.7478 151.863 37.4938C152.132 37.2284 152.443 37.0953 152.794 37.0953Z" fill="#FAFCFF"/>
<path d="M174.025 37.0953C174.388 37.0954 174.698 37.2285 174.955 37.4938C175.224 37.7478 175.359 38.054 175.359 38.4119C175.359 38.7699 175.224 39.0823 174.955 39.3479C174.698 39.6016 174.388 39.7284 174.025 39.7285C173.674 39.7285 173.363 39.6017 173.094 39.3479C172.825 39.0823 172.69 38.7699 172.69 38.4119C172.69 38.054 172.825 37.7478 173.094 37.4938C173.363 37.2284 173.674 37.0953 174.025 37.0953Z" fill="#FAFCFF"/>
<path d="M59.8467 14.3637C60.6311 14.3637 61.3164 14.4795 61.9018 14.7105C62.4989 14.9299 62.9968 15.2477 63.3948 15.6634C63.7927 16.079 64.0969 16.5702 64.3076 17.136L61.9723 17.8455C61.8319 17.4529 61.5742 17.118 61.1996 16.8409C60.8251 16.5638 60.3507 16.4256 59.7772 16.4255C59.1918 16.4255 58.7285 16.5584 58.389 16.824C58.0614 17.0895 57.8974 17.465 57.8974 17.9498C57.8974 18.3307 58.0267 18.6307 58.2842 18.8501C58.5535 19.0695 58.9166 19.2373 59.3732 19.3528L60.9881 19.7513C62.0418 20.0053 62.8618 20.4613 63.4472 21.1196C64.0325 21.7778 64.3257 22.5112 64.3257 23.3195C64.3256 24.0353 64.1499 24.6648 63.7988 25.2075C63.4476 25.7387 62.9379 26.1543 62.2705 26.4545C61.6032 26.7548 60.795 26.9047 59.8467 26.9047C59.2265 26.9046 58.6472 26.8301 58.1089 26.6801C57.5703 26.5299 57.0898 26.3217 56.6683 26.0561C56.2469 25.7789 55.8955 25.4728 55.6145 25.1379C55.3454 24.8032 55.1696 24.4511 55.0877 24.0817L57.441 23.3881C57.5932 23.7807 57.8626 24.1219 58.2489 24.4106C58.6353 24.6877 59.1213 24.8322 59.7067 24.8438C60.3271 24.8553 60.8305 24.7224 61.2168 24.4453C61.6148 24.1682 61.8142 23.81 61.8142 23.3712C61.8142 22.9902 61.6558 22.6723 61.3397 22.4183C61.0353 22.1528 60.6138 21.9507 60.0754 21.8122L58.4776 21.3968C57.8806 21.2467 57.3535 21.0213 56.897 20.7211C56.4404 20.4093 56.0827 20.0278 55.8251 19.5774C55.5677 19.1272 55.4392 18.6017 55.4392 18.0015C55.4393 16.8584 55.8198 15.9695 56.5806 15.3344C57.3533 14.6878 58.442 14.3637 59.8467 14.3637Z" fill="#FAFCFF"/>
<path d="M88.6669 17.8285C89.2171 17.8285 89.7268 17.9093 90.1951 18.071C90.675 18.2327 91.0847 18.458 91.4242 18.7467C91.7636 19.0353 91.9976 19.3703 92.1264 19.7513L90.2123 20.6168C90.1302 20.386 89.9308 20.2072 89.6149 20.0802C89.2989 19.9417 88.9829 19.8725 88.6669 19.8725C88.3626 19.8725 88.1222 19.9363 87.9466 20.0633C87.783 20.1903 87.7008 20.3638 87.7008 20.583C87.701 20.7328 87.7831 20.8598 87.9466 20.9636C88.1105 21.0559 88.3391 21.1367 88.6316 21.206L89.7731 21.4832C90.3466 21.6218 90.8091 21.8472 91.1603 22.1589C91.5114 22.4591 91.7636 22.7995 91.9158 23.1804C92.0797 23.55 92.1616 23.9144 92.1616 24.2724C92.1615 24.7919 92.0032 25.2536 91.6872 25.6576C91.3828 26.0502 90.9613 26.3564 90.4228 26.5758C89.8961 26.7951 89.287 26.9047 88.5964 26.9047C88.0347 26.9046 87.5082 26.8238 87.0167 26.6622C86.5251 26.489 86.0917 26.2465 85.7171 25.9348C85.3426 25.6116 85.0494 25.2191 84.8387 24.7573L86.8233 23.8561C86.9988 24.1216 87.2385 24.3525 87.5426 24.5487C87.8469 24.745 88.1985 24.8437 88.5964 24.8438C88.971 24.8438 89.2641 24.7917 89.4748 24.6878C89.6855 24.5839 89.791 24.4338 89.7912 24.2377C89.7912 24.0298 89.7029 23.879 89.5272 23.7866C89.3634 23.6828 89.141 23.5964 88.8603 23.5272L88.0524 23.3195C87.1977 23.1001 86.5242 22.7536 86.0325 22.2802C85.5525 21.7952 85.3132 21.2403 85.3132 20.6168C85.3132 19.7279 85.6055 19.0408 86.1907 18.5559C86.776 18.0709 87.6016 17.8286 88.6669 17.8285Z" fill="#FAFCFF"/>
<path d="M96.8302 17.8285C97.3804 17.8285 97.8901 17.9093 98.3584 18.071C98.8383 18.2327 99.248 18.458 99.5875 18.7467C99.9269 19.0353 100.161 19.3703 100.29 19.7513L98.3756 20.6168C98.2935 20.386 98.0941 20.2072 97.7782 20.0802C97.4622 19.9417 97.1462 19.8725 96.8302 19.8725C96.5258 19.8725 96.2855 19.9363 96.1099 20.0633C95.9463 20.1903 95.8641 20.3638 95.8641 20.583C95.8643 20.7328 95.9464 20.8598 96.1099 20.9636C96.2738 21.0559 96.5024 21.1367 96.7949 21.206L97.9363 21.4832C98.5099 21.6218 98.9724 21.8472 99.3236 22.1589C99.6747 22.4591 99.9269 22.7995 100.079 23.1804C100.243 23.55 100.325 23.9144 100.325 24.2724C100.325 24.7919 100.166 25.2536 99.8504 25.6576C99.5461 26.0502 99.1246 26.3564 98.5861 26.5758C98.0593 26.7951 97.4503 26.9047 96.7597 26.9047C96.198 26.9046 95.6715 26.8238 95.18 26.6622C94.6884 26.489 94.255 26.2465 93.8804 25.9348C93.5059 25.6116 93.2127 25.2191 93.002 24.7573L94.9866 23.8561C95.1621 24.1216 95.4018 24.3525 95.7059 24.5487C96.0102 24.745 96.3618 24.8437 96.7597 24.8438C97.1343 24.8438 97.4274 24.7917 97.6381 24.6878C97.8488 24.5839 97.9543 24.4338 97.9544 24.2377C97.9544 24.0298 97.8661 23.879 97.6905 23.7866C97.5267 23.6828 97.3043 23.5964 97.0236 23.5272L96.2157 23.3195C95.361 23.1001 94.6875 22.7536 94.1958 22.2802C93.7158 21.7952 93.4765 21.2403 93.4765 20.6168C93.4765 19.7279 93.7687 19.0408 94.354 18.5559C94.9393 18.0709 95.7649 17.8286 96.8302 17.8285Z" fill="#FAFCFF"/>
<path d="M69.4106 23.7095L71.2513 18.0362H73.5351L75.3215 23.5789L77.188 18.0362H79.5404L76.5554 26.697H74.2725L72.3956 20.7662L70.4967 26.697H68.2139L65.2279 18.0362H67.5813L69.4106 23.7095Z" fill="#FAFCFF"/>
<path d="M83.1752 26.697H80.8571V18.0362H83.1752V26.697Z" fill="#FAFCFF"/>
<path d="M82.0166 14C82.3792 14.0001 82.6891 14.1332 82.9465 14.3985C83.2157 14.6525 83.3504 14.9587 83.3505 15.3166C83.3505 15.6746 83.2158 15.987 82.9465 16.2526C82.6891 16.5062 82.3791 16.6331 82.0166 16.6332C81.6655 16.6332 81.3549 16.5064 81.0857 16.2526C80.8165 15.987 80.6818 15.6746 80.6818 15.3166C80.6818 14.9587 80.8165 14.6525 81.0857 14.3985C81.355 14.133 81.6655 14 82.0166 14Z" fill="#FAFCFF"/>
</svg>
