<svg width="240" height="72" viewBox="0 0 240 72" fill="none" xmlns="http://www.w3.org/2000/svg" role="img" aria-label="Swiss Class Association">
  <rect width="240" height="72" fill="none"/>
  <g transform="translate(0 6)">
    <path d="M34.8 0.5C29.5 0.5 24.8 2.1 21 5.2C17.2 8.3 14.3 12.7 12.4 18.4L3.9 47.2H17.9L19.6 41.4H33.6L31.9 47.2H45.9L53.6 21.1C55.2 15.8 55.9 11.8 55.9 9.1C55.9 6.4 55.1 4.4 53.4 3.2C51.7 2 49.4 1.4 46.6 1.4C42.9 1.4 38.9 2.4 34.8 4.4V0.5ZM28.1 30.3L31.8 17.9C32.6 15.2 33.8 13 35.5 11.4C37.2 9.8 39.2 9 41.6 9C43.1 9 44.1 9.3 44.6 9.9C45.1 10.5 45.1 11.4 44.7 12.7L40.8 25.9H28.1ZM22.7 35.8H36.9L34.8 42.8H20.6L22.7 35.8Z" fill="#F8FAFC"/>
    <path d="M52.8 40H61.4V34.8H52.8V26.2H47.6V34.8H39V40H47.6V48.6H52.8V40Z" fill="#E64637"/>
    <path d="M10.7 57.5H53.4V71H10.7V57.5Z" fill="#F8FAFC"/>
    <text x="0" y="66" fill="#F8FAFC" font-family="Arial, Helvetica, sans-serif" font-size="52" font-weight="700">70</text>
  </g>
  <g transform="translate(78 19)" fill="#F8FAFC" font-family="Arial, Helvetica, sans-serif" font-weight="700">
    <text x="0" y="16" font-size="17">Swiss</text>
    <text x="0" y="42" font-size="17">Class Association</text>
  </g>
</svg>
